<?xml version="1.0" standalone="no"?>
<!DOCTYPE svg PUBLIC "-//W3C//DTD SVG 20010904//EN"
 "http://www.w3.org/TR/2001/REC-SVG-20010904/DTD/svg10.dtd">
<svg version="1.0" xmlns="http://www.w3.org/2000/svg"
 width="160.000000pt" height="160.000000pt" viewBox="0 0 160.000000 160.000000"
 preserveAspectRatio="xMidYMid meet">
<metadata>
Created by potrace 1.14, written by Peter Selinger 2001-2017
</metadata>
<g transform="translate(0.000000,160.000000) scale(0.100000,-0.100000)"
fill="#000000" stroke="none">
<path d="M270 1511 c34 -5 41 -9 27 -15 -9 -5 -28 -6 -41 -4 -22 4 -26 0 -35
-38 -18 -70 -15 -83 24 -100 19 -7 45 -14 57 -15 17 0 13 -4 -16 -15 -61 -22
-88 -52 -106 -116 -5 -17 -5 -26 1 -23 5 4 9 -17 9 -49 0 -31 5 -56 10 -56 6
0 10 -5 10 -11 0 -5 -4 -7 -10 -4 -5 3 -10 1 -10 -4 0 -6 5 -11 11 -11 8 0 8
-4 2 -12 -6 -7 -10 -90 -11 -185 0 -95 -3 -181 -7 -192 -3 -11 -1 -22 4 -25 6
-4 3 -18 -6 -36 -12 -26 -13 -33 -1 -47 9 -12 9 -15 1 -9 -10 5 -13 -4 -13
-33 0 -23 5 -41 11 -41 5 0 8 -4 4 -10 -10 -16 41 -43 62 -32 16 9 15 11 -10
17 -16 4 -27 14 -27 24 0 10 3 12 8 5 9 -16 30 5 27 27 -2 11 5 16 24 15 27
-1 37 -26 13 -34 -7 -2 -10 2 -6 12 3 9 2 16 -4 16 -5 0 -12 -11 -14 -24 -4
-18 -1 -23 11 -21 9 1 21 -5 27 -13 10 -14 13 -13 25 6 16 25 29 29 29 7 0 -8
-4 -15 -8 -15 -5 0 -17 -7 -28 -16 -15 -13 -16 -15 -2 -10 12 3 15 1 11 -9 -3
-8 -9 -12 -14 -9 -5 3 -9 1 -9 -5 0 -6 -6 -8 -14 -5 -11 4 -13 0 -9 -15 4 -18
1 -21 -18 -18 -13 2 -23 7 -21 10 1 4 2 10 2 13 0 4 7 1 15 -6 8 -7 15 -8 15
-2 0 15 -23 28 -48 26 -12 -1 -20 1 -17 4 6 6 -14 32 -25 32 -3 0 -7 -7 -7
-15 0 -8 4 -12 9 -9 4 3 5 -9 2 -26 -5 -23 -2 -34 12 -45 16 -13 17 -14 2 -9
-15 5 -18 0 -17 -32 0 -22 3 -33 6 -27 3 8 20 -4 44 -31 45 -49 78 -62 111
-45 17 9 23 9 26 0 2 -6 9 -8 14 -5 7 4 8 2 4 -5 -6 -9 -11 -9 -21 -1 -9 7
-16 6 -24 -4 -9 -11 -4 -17 29 -30 132 -52 373 -89 585 -89 111 0 128 3 227
37 119 40 194 81 201 108 3 12 11 16 21 12 12 -5 15 -2 10 10 -4 10 -13 15
-20 12 -7 -3 -15 -2 -18 2 -6 10 -20 226 -20 307 0 33 6 116 13 185 7 69 16
179 21 245 5 66 11 143 14 170 4 37 3 42 -3 20 -8 -28 -9 -26 -10 17 -1 51
-28 88 -63 88 -21 0 -23 11 -6 28 7 7 17 8 29 2 14 -8 16 -6 11 13 -5 20 -4
20 11 8 9 -7 17 -12 18 -10 0 2 2 11 4 19 16 74 16 72 -34 120 l-49 47 -69 -3
c-438 -14 -494 -14 -487 -2 6 10 4 11 -7 1 -16 -15 -53 -17 -44 -3 3 6 1 10
-4 10 -6 0 -11 -4 -11 -10 0 -18 -20 -11 -20 8 -1 15 -2 15 -15 -2 -15 -20
-15 -20 -16 0 0 18 -1 18 -9 -1 -8 -18 -9 -18 -9 -2 -1 10 -6 15 -11 12 -6 -4
-8 -10 -5 -15 4 -7 -17 -7 -35 1 -3 1 -34 2 -70 4 -36 1 -112 4 -170 8 -58 3
-85 2 -60 -2z m90 -11 c0 -13 -11 -13 -30 0 -12 8 -11 10 8 10 12 0 22 -4 22
-10z m58 -7 c-10 -2 -26 -2 -35 0 -10 3 -2 5 17 5 19 0 27 -2 18 -5z m809 1
c-3 -3 -12 -4 -19 -1 -8 3 -5 6 6 6 11 1 17 -2 13 -5z m-449 -35 c2 -5 7 -7
12 -4 5 3 11 -4 15 -15 4 -11 11 -18 16 -15 5 4 9 2 9 -3 0 -6 -7 -12 -15 -16
-8 -3 -15 -1 -15 5 0 6 -6 9 -13 6 -12 -5 -40 17 -31 26 2 2 -3 10 -13 18 -11
9 -14 10 -9 2 4 -8 1 -13 -8 -14 -9 -1 -22 -2 -28 -3 -23 -4 -29 5 -16 21 9
11 23 13 53 8 22 -3 42 -10 43 -16z m361 11 c-9 -5 -43 -8 -75 -6 -33 2 -65
-2 -73 -8 -11 -8 -13 -8 -7 2 6 9 1 12 -17 8 -13 -2 -30 0 -38 5 -9 5 32 9
106 9 81 -1 115 -4 104 -10z m-872 -6 c-3 -3 -12 -4 -19 -1 -8 3 -5 6 6 6 11
1 17 -2 13 -5z m558 -14 c3 -5 1 -10 -4 -10 -6 0 -11 5 -11 10 0 6 2 10 4 10
3 0 8 -4 11 -10z m-578 -22 c-1 -14 3 -22 11 -20 6 1 11 -2 10 -7 -2 -5 8 -19
22 -31 l25 -22 -35 7 c-49 10 -63 26 -55 64 8 35 26 42 22 9z m673 -4 c0 -10
-6 -14 -14 -11 -8 3 -16 1 -19 -6 -2 -6 -6 -3 -10 7 -4 9 -3 15 2 11 5 -3 12
-1 16 5 10 16 25 12 25 -6z m77 1 c0 -8 -4 -15 -9 -15 -10 0 -11 14 -1 23 9
10 10 9 10 -8z m393 -26 c0 -11 -6 -19 -12 -19 -8 0 -13 12 -13 29 0 22 3 27
13 19 6 -6 12 -19 12 -29z m-530 21 c0 -5 -5 -10 -11 -10 -5 0 -7 5 -4 10 3 6
8 10 11 10 2 0 4 -4 4 -10z m195 0 c3 -5 1 -10 -4 -10 -6 0 -11 5 -11 10 0 6
2 10 4 10 3 0 8 -4 11 -10z m-657 -26 c0 -17 -3 -22 -8 -13 -5 6 -6 18 -3 26
8 19 11 16 11 -13z m752 22 c0 -2 -6 -9 -14 -15 -11 -9 -16 -9 -22 0 -4 7 -3
9 4 5 6 -3 13 -2 17 4 6 10 15 14 15 6z m-640 -24 c0 -4 -9 -8 -20 -9 -22 -2
-27 13 -7 20 14 5 27 -1 27 -11z m60 -2 c0 -5 -2 -10 -4 -10 -3 0 -8 5 -11 10
-3 6 -1 10 4 10 6 0 11 -4 11 -10z m28 -15 c-3 -3 -9 2 -12 12 -6 14 -5 15 5
6 7 -7 10 -15 7 -18z m32 4 c0 -6 -4 -7 -10 -4 -5 3 -10 11 -10 16 0 6 5 7 10
4 6 -3 10 -11 10 -16z m47 3 c-10 -10 -17 -24 -17 -30 0 -15 -17 -15 -26 0 -5
7 -3 8 6 3 10 -6 12 -4 7 9 -4 9 -3 15 2 12 5 -3 14 1 21 9 7 8 15 15 18 15 3
0 -2 -8 -11 -18z m393 7 c0 -15 -18 -19 -23 -6 -3 8 1 14 9 14 8 0 14 -4 14
-8z m-618 -18 c-4 -10 0 -13 14 -9 15 4 20 0 22 -16 0 -11 -2 -16 -6 -10 -4 6
-17 10 -29 9 -12 -1 -20 2 -17 7 3 5 0 15 -6 23 -9 11 -8 14 8 12 13 -1 18 -6
14 -16z m528 7 c0 -6 -3 -8 -7 -5 -3 4 -13 1 -22 -6 -14 -11 -14 -10 -2 6 15
20 31 22 31 5z m186 -13 c1 -8 -2 -12 -8 -9 -7 5 -9 -3 -4 -22 10 -38 -2 -26
-13 14 -7 22 -6 32 2 35 15 5 20 1 23 -18z m-626 0 c0 -8 -4 -15 -9 -15 -13 0
-22 16 -14 24 11 11 23 6 23 -9z m180 9 c0 -8 -19 -13 -24 -6 -3 5 1 9 9 9 8
0 15 -2 15 -3z m70 -29 c-5 -6 -7 -14 -4 -17 3 -3 0 -9 -6 -13 -7 -4 -10 5 -8
29 2 28 5 33 15 24 9 -7 10 -14 3 -23z m137 29 c-3 -3 -12 -4 -19 -1 -8 3 -5
6 6 6 11 1 17 -2 13 -5z m-362 -14 c3 -5 1 -10 -4 -10 -6 0 -11 5 -11 10 0 6
2 10 4 10 3 0 8 -4 11 -10z m-164 -25 c5 4 9 1 9 -5 0 -17 -25 -6 -26 11 -1 9
1 10 3 1 3 -7 9 -10 14 -7z m224 5 c3 -5 1 -10 -4 -10 -6 0 -11 5 -11 10 0 6
2 10 4 10 3 0 8 -4 11 -10z m85 -25 c0 -5 -5 -3 -10 5 -5 8 -10 20 -10 25 0 6
5 3 10 -5 5 -8 10 -19 10 -25z m125 25 c3 -5 1 -10 -4 -10 -6 0 -11 5 -11 10
0 6 2 10 4 10 3 0 8 -4 11 -10z m125 -11 c0 -6 7 -8 16 -5 12 4 14 1 9 -14 -5
-15 -2 -18 14 -15 12 2 21 0 21 -4 0 -22 -458 -17 -480 5 -8 8 -7 13 5 18 9 3
14 2 11 -3 -6 -9 7 -10 109 -12 69 -2 77 0 70 10 -3 5 0 13 6 17 7 4 9 3 5 -4
-3 -6 4 -14 16 -18 32 -11 41 -11 55 -2 6 5 14 5 16 1 3 -5 25 -7 49 -6 24 2
53 3 66 3 13 0 21 4 17 9 -3 5 -17 8 -30 5 -14 -2 -25 0 -25 6 0 6 4 9 9 5 5
-3 12 -1 16 5 8 13 25 13 25 -1z m-66 -19 c-6 -6 -15 -5 -24 1 -13 9 -12 10 3
5 9 -3 17 0 17 6 0 6 3 8 7 5 4 -4 2 -12 -3 -17z m-451 -2 c-2 -5 7 -8 20 -8
14 0 43 -7 66 -15 54 -19 357 -22 591 -6 107 7 168 7 174 1 6 -6 17 -10 26
-10 9 0 27 -10 39 -22 20 -18 23 -28 18 -73 -3 -28 -12 -68 -21 -88 -13 -32
-19 -37 -49 -37 -18 0 -62 11 -97 25 -76 30 -102 31 -155 5 -50 -24 -173 -27
-235 -5 -50 18 -106 19 -200 4 -50 -7 -79 -7 -107 1 -140 42 -203 53 -221 38
-13 -10 -14 -10 -8 0 11 18 -34 16 -62 -4 -22 -15 -22 -15 -22 38 0 80 6 91
66 122 30 16 51 32 45 35 -5 4 23 6 64 6 40 0 71 -3 68 -7z m775 -3 c30 4 32
3 12 -4 -32 -11 -177 -14 -184 -3 -2 4 22 8 56 7 33 0 63 4 66 9 3 6 7 5 10
-2 2 -8 17 -11 40 -7z m-928 0 c0 -2 -15 -12 -32 -20 l-33 -16 24 21 c22 19
41 26 41 15z m-26 -193 c2 -4 -5 -9 -17 -9 -17 -2 -19 0 -7 7 18 12 18 12 24
2z m86 -29 c0 -8 -8 -5 -20 7 -11 11 -20 22 -20 25 0 3 9 0 20 -7 11 -7 20
-18 20 -25z m-69 -6 c-10 -9 -11 -8 -5 6 3 10 9 15 12 12 3 -3 0 -11 -7 -18z
m1091 -9 c-8 -8 -9 -4 -5 13 4 13 8 18 11 10 2 -7 -1 -18 -6 -23z m-1049 5
c-7 -2 -13 -14 -13 -26 0 -17 -2 -19 -9 -8 -12 19 -3 41 18 40 10 0 11 -2 4
-6z m-66 -23 c-2 -23 -12 -26 -20 -6 -3 8 -1 17 6 20 7 2 13 5 14 5 1 1 1 -8
0 -19z m1121 -56 l-3 -39 -5 47 c-3 26 -1 43 3 39 5 -5 7 -26 5 -47z m-1077 3
c-10 -9 -11 -8 -5 6 3 10 9 15 12 12 3 -3 0 -11 -7 -18z m-31 -38 c-10 -22
-10 -23 -6 -1 2 12 0 22 -6 22 -5 0 -6 5 -2 11 12 21 25 -7 14 -32z m80 26 c7
-9 8 -15 2 -15 -5 0 -12 7 -16 15 -3 8 -4 15 -2 15 2 0 9 -7 16 -15z m-110 1
c0 -2 -8 -10 -17 -17 -16 -13 -17 -12 -4 4 13 16 21 21 21 13z m85 -16 c3 -5
1 -10 -4 -10 -6 0 -11 5 -11 10 0 6 2 10 4 10 3 0 8 -4 11 -10z m765 -233 c0
-128 -4 -248 -10 -267 l-10 -35 -232 0 c-128 0 -261 -4 -294 -9 l-61 -9 -7 36
c-4 19 -2 55 3 79 6 23 11 125 11 226 l0 182 33 0 c17 0 49 6 69 13 25 9 108
13 267 14 l231 1 0 -231z m-824 178 c-3 -20 -16 -31 -16 -13 0 13 8 28 16 28
1 0 1 -7 0 -15z m-50 -73 c-3 -3 0 -12 6 -21 10 -13 10 -14 -2 -4 -16 15 -23
46 -8 37 5 -3 7 -9 4 -12z m72 3 c-10 -10 -49 -14 -43 -4 4 5 16 9 27 9 12 0
19 -2 16 -5z m38 -33 c-17 -16 -18 -16 -5 5 7 12 15 20 18 17 3 -2 -3 -12 -13
-22z m-66 -26 c0 -8 -4 -17 -8 -20 -4 -2 -8 4 -8 15 0 10 4 19 8 19 4 0 8 -6
8 -14z m-30 0 c0 -2 -8 -10 -17 -17 -16 -13 -17 -12 -4 4 13 16 21 21 21 13z
m100 -26 c-8 -5 -22 -9 -30 -9 -10 0 -8 3 5 9 27 12 43 12 25 0z m-4 -25 c-11
-8 -25 -15 -32 -15 -7 0 -20 -7 -28 -16 -14 -13 -16 -13 -16 -1 0 13 17 22 58
32 8 2 16 6 20 9 3 3 8 6 11 6 3 0 -3 -7 -13 -15z m-105 -48 l-23 -22 16 26
c9 14 15 28 13 31 -2 3 1 2 7 -3 7 -6 3 -17 -13 -32z m79 13 c-8 -5 -19 -10
-25 -10 -5 0 -3 5 5 10 8 5 20 10 25 10 6 0 3 -5 -5 -10z m-26 -41 c-6 22 -4
23 17 17 13 -4 29 -8 36 -8 7 -1 12 -4 11 -7 -2 -19 4 -24 13 -11 8 12 10 12
7 1 -4 -16 -38 -25 -38 -10 0 5 -7 9 -16 9 -8 0 -12 -4 -9 -10 3 -5 -1 -10 -9
-10 -9 0 -16 -5 -16 -11 0 -8 -5 -8 -15 1 -12 10 -13 16 -4 26 9 11 8 14 0 14
-7 0 -9 5 -5 11 4 8 12 3 21 -12 l14 -24 -7 24z m106 -52 c0 -8 -3 -8 -9 1 -7
11 -9 11 -14 -2 -4 -9 -10 -16 -14 -15 -22 4 -33 -3 -33 -21 0 -21 -15 -27
-25 -10 -4 6 -11 8 -16 5 -5 -4 -9 -1 -9 4 0 6 5 11 11 11 5 0 7 6 3 13 -5 7
0 6 11 -3 11 -9 16 -10 11 -2 -5 8 0 12 13 12 12 0 24 -1 27 -2 3 -2 10 5 15
15 11 18 29 14 29 -6z m-136 -24 c3 -8 1 -11 -4 -8 -6 3 -10 3 -10 -2 0 -4 17
-16 38 -25 20 -9 28 -15 17 -14 -22 2 -85 33 -85 42 0 3 5 2 12 -2 7 -5 9 -2
6 8 -4 8 0 15 8 15 7 0 16 -7 18 -14z m140 -40 c-1 -41 -24 -53 -46 -25 -11
15 -11 15 4 4 20 -16 27 -7 23 35 -2 20 2 30 9 27 6 -2 11 -21 10 -41z m-187
-38 c0 -8 -4 -12 -9 -9 -4 3 -8 9 -8 15 0 5 4 9 8 9 5 0 9 -7 9 -15z m133 -6
c0 -6 -4 -7 -10 -4 -5 3 -10 11 -10 16 0 6 5 7 10 4 6 -3 10 -11 10 -16z m53
-59 c3 -11 1 -20 -4 -20 -5 0 -10 8 -10 18 -1 16 -2 16 -6 0 -2 -10 -9 -18
-14 -18 -4 0 -4 11 3 25 12 27 23 26 31 -5z m-150 -100 c-6 -7 -23 23 -23 40
0 8 6 4 13 -10 8 -14 12 -27 10 -30z m146 47 c-2 -1 -13 -9 -24 -17 -19 -14
-19 -14 -6 3 7 9 18 17 24 17 6 0 8 -1 6 -3z m-57 -14 c-6 -2 -9 -10 -5 -16 4
-7 -1 -6 -10 2 -22 18 -21 21 6 20 12 0 16 -3 9 -6z m-42 -42 c0 -11 5 -21 12
-23 8 -3 8 -9 -1 -24 -9 -14 -11 -15 -7 -2 3 11 1 15 -8 12 -8 -3 -12 -15 -10
-27 2 -13 1 -16 -2 -7 -4 8 -11 21 -17 28 -8 10 -7 12 4 10 10 -2 13 5 12 25
-1 15 2 27 8 27 5 0 9 -9 9 -19z m17 -3 c-3 -8 -6 -5 -6 6 -1 11 2 17 5 13 3
-3 4 -12 1 -19z m30 -74 c-9 -9 -28 6 -21 18 4 6 10 6 17 -1 6 -6 8 -13 4 -17z
m56 -31 c-7 -2 -19 -2 -25 0 -7 3 -2 5 12 5 14 0 19 -2 13 -5z"/>
<path d="M559 831 c-20 -20 -29 -40 -29 -60 0 -35 14 -44 93 -55 41 -6 51 -13
73 -46 61 -92 -35 -143 -129 -70 -14 11 -31 20 -38 20 -22 0 53 -50 90 -60 94
-26 139 36 87 119 -21 33 -31 40 -72 46 -101 15 -119 41 -65 96 34 34 60 36
119 9 23 -11 40 -15 36 -9 -10 17 -70 39 -104 39 -21 0 -41 -9 -61 -29z"/>
<path d="M807 718 c-10 -40 -20 -93 -22 -118 -2 -25 -1 -34 1 -20 9 47 39 150
44 150 3 0 15 -35 26 -77 11 -43 24 -78 29 -78 5 0 17 29 27 64 19 70 38 101
38 62 0 -13 7 -37 15 -54 8 -18 19 -50 24 -72 7 -33 9 -35 10 -12 1 15 -6 44
-15 65 -9 20 -22 62 -29 92 -13 60 -13 61 -47 -55 l-24 -80 -24 102 c-14 57
-27 103 -30 103 -3 0 -13 -33 -23 -72z"/>
<path d="M270 443 c0 -5 5 -15 10 -23 8 -12 10 -11 10 8 0 12 -4 22 -10 22 -5
0 -10 -3 -10 -7z"/>
</g>
</svg>
